<?xml version="1.0" standalone="no"?>
<!DOCTYPE svg PUBLIC "-//W3C//DTD SVG 20010904//EN"
 "http://www.w3.org/TR/2001/REC-SVG-20010904/DTD/svg10.dtd">
<svg version="1.0" xmlns="http://www.w3.org/2000/svg"
 width="64.000000pt" height="64.000000pt" viewBox="0 0 64.000000 64.000000"
 preserveAspectRatio="xMidYMid meet">

<g transform="translate(0.000000,64.000000) scale(0.100000,-0.100000)"
fill="#ffbdbd" stroke="none">
<path d="M514 586 c-3 -8 -4 -25 -2 -38 2 -18 9 -23 32 -23 36 0 56 27 40 53
-14 22 -62 28 -70 8z"/>
<path d="M48 559 c-22 -13 -23 -55 -2 -63 26 -10 51 -7 64 9 18 22 40 18 40
-7 0 -13 13 -80 29 -150 15 -71 24 -128 19 -128 -18 0 -48 -42 -48 -68 0 -32
27 -62 55 -62 10 0 28 -11 41 -25 31 -34 78 -34 100 0 21 33 60 33 86 0 26
-33 70 -33 96 0 11 14 29 25 41 25 12 0 21 5 21 10 0 6 -9 10 -20 10 -10 0
-30 11 -44 25 -14 14 -34 25 -46 25 -11 0 -32 -11 -46 -25 -24 -24 -84 -36
-84 -16 0 18 -31 41 -55 41 -13 0 -32 -11 -44 -26 -16 -20 -26 -25 -45 -20
-33 8 -43 42 -20 67 16 17 32 19 207 19 104 -1 191 1 193 3 3 2 10 55 16 116
9 87 9 114 0 120 -6 4 -106 20 -222 35 -189 26 -210 30 -210 47 0 13 -7 19
-22 19 -13 0 -32 7 -42 15 -23 17 -34 18 -58 4z"/>
<path d="M430 520 c0 -5 5 -10 10 -10 6 0 10 5 10 10 0 6 -4 10 -10 10 -5 0
-10 -4 -10 -10z"/>
<path d="M100 380 c0 -5 5 -10 10 -10 6 0 10 5 10 10 0 6 -4 10 -10 10 -5 0
-10 -4 -10 -10z"/>
<path d="M65 286 c-20 -15 -17 -44 7 -59 12 -8 21 -7 32 2 36 30 -1 85 -39 57z"/>
<path d="M410 170 c0 -5 5 -10 10 -10 6 0 10 5 10 10 0 6 -4 10 -10 10 -5 0
-10 -4 -10 -10z"/>
<path d="M90 120 c0 -5 5 -10 10 -10 6 0 10 5 10 10 0 6 -4 10 -10 10 -5 0
-10 -4 -10 -10z"/>
</g>
</svg>
